Coordinates
version=1
nRows=6
nColumns=46
inDegrees=yes

Units are S.I. units (second, meters, Newtons, ...)
Angles are in degrees.

endheader
time	pelvis_tilt	pelvis_list	pelvis_rotation	pelvis_tx	pelvis_ty	pelvis_tz	bb_angle	bb_tx	bb_ty	bb_tz	hip_flexion_r	hip_adduction_r	hip_rotation_r	knee_angle_r	knee_angle_r_beta	ankle_angle_r	subtalar_angle_r	mtp_angle_r	crank_angle_r	hip_flexion_l	hip_adduction_l	hip_rotation_l	knee_angle_l	knee_angle_l_beta	ankle_angle_l	subtalar_angle_l	mtp_angle_l	crank_angle_l	lumbar_extension	lumbar_bending	lumbar_rotation	arm_flex_r	arm_add_r	arm_rot_r	elbow_flex_r	pro_sup_r	wrist_flex_r	wrist_dev_r	arm_flex_l	arm_add_l	arm_rot_l	elbow_flex_l	pro_sup_l	wrist_flex_l	wrist_dev_l
      0.00000000	    -18.98203236	      0.68765857	      4.99908731	      0.10678734	      1.14375283	     -0.25528887	      0.00000000	      0.50000000	      0.00000000	      0.25000000	     57.40517925	     -7.62851187	     -3.06940665	     73.32555751	      1.27977240	      9.39124337	     -8.11972666	      0.00000000	      0.00000000	     84.97449582	     -1.83016926	      0.94809122	     82.42109863	      1.43851954	     10.14928298	     -1.71051501	      0.00000000	      0.00000000	    -52.68098077	      0.45026983	     -0.86428135	     89.83413634	     -0.22989812	     17.11780487	     37.40947804	     19.42709355	      0.00000000	      0.00000000	     89.82341742	      3.64762565	     20.67898779	     38.95767198	     18.50966013	      0.00000000	      0.00000000
      0.00500000	    -18.93992085	      0.59647850	      4.97768167	      0.10679257	      1.14386140	     -0.25522223	      0.00000000	      0.50000000	      0.00000000	      0.25000000	     57.76254875	     -7.57663416	     -3.04843739	     74.17376616	      1.29457644	      9.36170344	     -8.15825768	      0.00000000	      0.00000000	     84.52762231	     -1.82221219	      1.05130384	     81.62324170	      1.42459431	      9.84927175	     -1.74810421	      0.00000000	      0.00000000	    -52.73220403	      0.51926686	     -0.74077002	     89.83349920	     -0.07283115	     16.49306302	     37.22762757	     20.77362882	      0.00000000	      0.00000000	     89.82430414	      3.74719662	     20.37927358	     38.66396941	     19.94263106	      0.00000000	      0.00000000
      0.01000000	    -18.83583221	      0.36408388	      5.01487875	      0.10681518	      1.14400402	     -0.25530582	      0.00000000	      0.50000000	      0.00000000	      0.25000000	     58.00278490	     -7.48745865	     -3.22798481	     74.96160353	      1.30832679	      9.32757156	     -8.26295484	      0.00000000	      0.00000000	     84.05792736	     -1.71052708	      1.34372802	     80.88338123	      1.41168131	      9.62264775	     -2.03386711	      0.00000000	      0.00000000	    -52.85224713	      0.78156436	     -0.55731352	     89.83394075	      0.23581326	     15.38151679	     36.86317891	     24.01948715	      0.00000000	      0.00000000	     89.82355970	      3.93823697	     19.59316545	     38.12879219	     23.40609894	      0.00000000	      0.00000000
      0.01500000	    -18.95584434	      0.31452475	      4.87691479	      0.10685789	      1.14371390	     -0.25498900	      0.00000000	      0.50000000	      0.00000000	      0.25000000	     58.58472591	     -7.35099691	     -3.05959598	     75.82716336	      1.32343366	      9.30458931	     -8.25847573	      0.00000000	      0.00000000	     83.72575249	     -1.82007843	      1.38353082	     80.09678427	      1.39795261	      9.42387821	     -2.14234085	      0.00000000	      0.00000000	    -52.64880673	      0.68628819	     -0.49552022	     89.83574032	     -0.20149681	     17.36208486	     37.40260235	     19.18063130	      0.00000000	      0.00000000	     89.82299003	      3.64100667	     20.75377195	     38.92871537	     18.21659094	      0.00000000	      0.00000000
      0.02000000	    -18.96588573	      0.18433752	      4.86250790	      0.10690658	      1.14344182	     -0.25491474	      0.00000000	      0.50000000	      0.00000000	      0.25000000	     59.00528216	     -7.29144302	     -3.06870000	     76.64652264	      1.33773418	      9.22210958	     -8.29016573	      0.00000000	      0.00000000	     83.28807494	     -1.76119561	      1.55181229	     79.31773081	      1.38435556	      9.35230602	     -2.37121224	      0.00000000	      0.00000000	    -52.60407467	      0.81251285	     -0.39564751	     89.83575474	     -0.00499726	     16.95697001	     36.92573462	     22.18986215	      0.00000000	      0.00000000	     89.82483932	      3.37304201	     21.23793849	     38.32993887	     21.47088213	      0.00000000	      0.00000000
      0.02500000	    -18.84742648	     -0.01137095	      4.81796836	      0.10707129	      1.14388703	     -0.25493576	      0.00000000	      0.50000000	      0.00000000	      0.25000000	     59.21898679	     -7.09749292	     -3.08248641	     77.34694982	      1.34995894	      9.09003376	     -8.45966442	      0.00000000	      0.00000000	     82.67986868	     -1.78046546	      1.74926551	     78.51669658	      1.37037487	      9.35991235	     -2.47025991	      0.00000000	      0.00000000	    -52.77924792	      0.98937931	     -0.13018197	     89.83585396	      0.42339099	     15.38094009	     36.54177253	     25.58912892	      0.00000000	      0.00000000	     89.82514673	      3.96066594	     19.97253791	     37.44938300	     25.06764378	      0.00000000	      0.00000000
